<?xml version="1.0" encoding="UTF-8" standalone="no"?>
<!-- Created with Inkscape (http://www.inkscape.org/) -->

<svg
   version="1.1"
   id="svg1"
   width="128"
   height="128"
   viewBox="0 0 128 128"
   sodipodi:docname="icon.svg"
   inkscape:version="1.4 (86a8ad7, 2024-10-11)"
   xmlns:inkscape="http://www.inkscape.org/namespaces/inkscape"
   xmlns:sodipodi="http://sodipodi.sourceforge.net/DTD/sodipodi-0.dtd"
   xmlns="http://www.w3.org/2000/svg"
   xmlns:svg="http://www.w3.org/2000/svg">
  <defs
     id="defs1" />
  <sodipodi:namedview
     id="namedview1"
     pagecolor="#505050"
     bordercolor="#ffffff"
     borderopacity="1"
     inkscape:showpageshadow="0"
     inkscape:pageopacity="0"
     inkscape:pagecheckerboard="1"
     inkscape:deskcolor="#505050"
     inkscape:zoom="4.2702621"
     inkscape:cx="55.734284"
     inkscape:cy="61.939992"
     inkscape:current-layer="g1" />
  <g
     inkscape:groupmode="layer"
     inkscape:label="Image"
     id="g1">
    <g
       id="g2"
       transform="matrix(0.12112614,0,0,0.12112614,1.9834166,2.0346892)"
       style="stroke-width:8.25585">
      <path
         style="fill:#f1f1f1;fill-opacity:1;fill-rule:evenodd;stroke:#000000;stroke-width:24.7676;stroke-linecap:round;stroke-miterlimit:20;stroke-opacity:0;paint-order:stroke markers fill"
         d="m 85.774903,378.2044 6.623545,-37.09185 241.428202,-90.74256 105.37356,-16.77777 108.73252,8.9951 129.30908,49.66641 -28.10132,91.79764 L 500.2035,740.00143 451.49454,764.3559 216.38016,687.54563 132.0762,544.2289 Z"
         id="path2" />
      <path
         style="fill:#f16821;fill-opacity:1;stroke-width:8.25585"
         d="m 393.7867,797.89936 c -13.43583,-2.45678 -36.2896,-6.51879 -50.78615,-9.02667 -32.79704,-5.67388 -67.0222,-11.70878 -108.64379,-19.15707 -17.67872,-3.16367 -59.19384,-10.41567 -92.25582,-16.11561 -33.06196,-5.69993 -63.147931,-11.5251 -66.857713,-12.94484 -7.317623,-2.80046 -10.747979,-5.26859 -14.177499,-10.20072 -2.065705,-2.97076 -2.210469,-15.55426 -2.210469,-192.13086 V 349.37168 l 6.157669,-5.87083 c 7.037239,-6.70941 16.466128,-11.54044 77.532012,-39.72468 22.91771,-10.57738 55.55436,-25.72639 72.52593,-33.66447 55.26952,-25.85111 99.1127,-45.8937 103.71514,-47.41265 3.59304,-1.1858 9.18011,-0.97274 27.53971,1.0503 12.6677,1.39583 38.07517,4.03143 56.46105,5.85687 39.54571,3.92629 39.21462,3.86738 39.21462,6.97906 0,2.73269 -33.40424,20.12723 -160.71565,83.68922 -41.36822,20.65367 -78.57319,39.57785 -82.67773,42.05374 l -7.46277,4.50165 -22.1089,-2.62958 c -65.92656,-7.84115 -68.73455,-7.93411 -72.119012,-2.38763 -1.995798,3.27075 1.448513,5.5462 9.883232,6.5292 20.3598,2.3728 81.42691,9.93123 82.32795,10.18997 0.58182,0.16706 0.99586,28.6946 0.92007,63.39454 -0.13777,63.07927 0.28487,69.91941 4.32016,69.91941 1.02395,0 12.17587,-5.81054 24.78204,-12.91231 12.60617,-7.10178 24.10138,-13.20924 25.54491,-13.57217 2.9156,-0.733 4.36263,0.32582 29.60492,21.66301 8.99312,7.60186 17.1163,13.82155 18.05151,13.82155 0.93522,0 2.22077,-1.01251 2.85682,-2.25003 0.63601,-1.23751 1.50098,-29.9695 1.92214,-63.84887 0.43586,-35.06225 1.28013,-62.11324 1.95974,-62.79287 0.73486,-0.73485 13.2388,0.0936 32.51624,2.15454 85.00614,9.08765 104.73292,11.42614 106.17907,12.58688 1.21901,0.97841 1.65065,38.71206 1.9286,168.59925 0.39129,182.86076 0.0234,174.41021 7.59071,174.41021 2.24883,0 4.10639,-0.93582 4.93652,-2.48694 0.89832,-1.67852 1.33097,-58.04885 1.33097,-173.41548 0,-135.22456 0.3357,-171.1875 1.60714,-172.16821 0.88395,-0.68178 4.13606,-2.22237 7.22693,-3.4235 13.17825,-5.12118 196.88628,-97.70572 199.5989,-100.59318 3.76716,-4.00994 2.03192,-7.64093 -3.53683,-7.40084 -2.02408,0.0873 -40.41973,18.24778 -85.3237,40.35669 -109.85758,54.08948 -125.99122,61.81884 -130.50111,62.521 -2.12145,0.33029 -33.51547,-2.61225 -69.76448,-6.53895 -36.24902,-3.92672 -66.99412,-7.13948 -68.32243,-7.13948 -1.32833,0 -3.62619,-1.01251 -5.10635,-2.25004 -2.54536,-2.12804 -2.58215,-2.47043 -0.67874,-6.31708 5.33238,-10.77628 58.65864,-40.81023 200.15927,-112.73195 31.6523,-16.08818 34.86781,-17.44745 39.85747,-16.84879 2.98516,0.35817 27.12416,2.96779 53.64226,5.79916 26.51808,2.83139 58.26116,6.22207 70.54018,7.53488 23.73303,2.5374 25.93196,3.29367 31.58261,10.86211 2.52808,3.3861 2.62064,4.91512 2.22148,36.70617 -0.3601,28.67976 -0.15314,33.27393 1.52796,33.91904 2.08503,0.8001 2.80508,0.64505 78.62935,-16.93107 125.11028,-29.0007 136.31843,-32.05603 163.22726,-44.49568 8.45287,-3.90767 16.66477,-7.10485 18.24868,-7.10485 7.35599,0 8.92552,12.12811 3.52586,27.24502 -3.96079,11.08865 -12.63481,28.30515 -19.43713,38.5795 -18.51058,27.95871 -45.08268,49.64223 -85.53775,69.80104 -24.27938,12.09844 -44.90247,19.07962 -77.98745,26.39973 -21.31222,4.71538 -26.51094,8.51184 -18.68101,13.64219 3.0769,2.01607 4.29012,2.01226 18.96444,-0.0594 19.07449,-2.69294 56.82271,-9.69904 81.41305,-15.11032 10.05976,-2.21372 19.57007,-3.64419 21.31548,-3.20613 3.23692,0.81234 6.1638,5.49832 6.1638,9.86822 0,9.52127 -14.60456,33.44432 -29.81707,48.84199 -25.33496,25.64332 -65.61757,46.25061 -109.04126,55.78203 -17.62782,3.86927 -33.37969,5.93278 -45.28809,5.93278 -6.99807,0 -9.21835,0.50597 -11.28383,2.57146 -3.48798,3.48799 -3.23215,5.93642 0.90343,8.64618 6.66805,4.36905 41.09805,2.19472 79.0603,-4.99287 18.96196,-3.59016 21.60857,-2.85471 21.60857,6.0048 0,20.70552 -33.5624,48.93978 -74.74617,62.87996 -7.32931,2.48089 -15.78496,5.13288 -18.79033,5.89334 l -5.46435,1.38268 -0.002,14.41483 c -0.002,18.68812 -1.32396,21.49013 -13.49812,28.62334 -4.95005,2.90036 -42.26822,23.82121 -82.92929,46.49073 -40.66106,22.66956 -82.60785,46.10175 -93.21508,52.07157 -63.34569,35.6513 -67.57927,36.7352 -111.8581,28.63869 z m 192.66991,-6.95646 c -7.99167,-4.87305 -8.43386,-17.23676 -0.83038,-23.21765 3.23647,-2.54582 4.99271,-2.59157 99.49015,-2.59157 66.42756,0 97.14314,0.43178 99.25782,1.39528 4.18107,1.90503 7.34448,7.67498 7.34448,13.39608 0,3.68955 -0.97713,5.72879 -4.37147,9.12314 l -4.37147,4.37145 -96.23653,-0.006 c -92.61276,-0.005 -96.38891,-0.0977 -100.2826,-2.47193 z m 120.10306,-79.70421 c -3.69373,-3.30034 -4.19891,-4.53431 -4.19891,-10.25658 0,-5.39446 0.60847,-7.11344 3.56438,-10.06984 l 3.56438,-3.56497 78.70642,-0.35074 c 83.67752,-0.3729 83.52853,-0.38274 88.42418,5.84108 4.78449,6.08248 2.11178,17.60069 -4.8166,20.75747 -2.09569,0.95486 -27.99614,1.39528 -82.05364,1.39528 H 710.75855 Z M 821.5691,624.26873 c -7.38167,-5.17034 -8.31993,-15.31606 -2.00078,-21.63519 l 3.35842,-3.35842 h 41.69527 c 26.13838,0 42.6182,0.49394 44.16889,1.32384 5.33721,2.85639 7.93709,12.60799 4.88292,18.31476 -3.93578,7.35404 -3.40002,7.27247 -48.06128,7.31886 -35.28148,0.0365 -41.58883,-0.24459 -44.04344,-1.96385 z"
         id="path1" />
    </g>
  </g>
</svg>
